<svg xmlns="http://www.w3.org/2000/svg" xmlns:xlink="http://www.w3.org/1999/xlink" zoomAndPan="magnify" viewBox="0 0 375 374.999991" preserveAspectRatio="xMidYMid meet" version="1.0">
    <defs>
        <g/>
    </defs>
    <g fill-opacity="1">
        <g transform="translate(72.582608, 229.979022)">
            <g>
                <path d="M 1.328125 -63.125 L 1.140625 -53.71875 L -41.578125 -41.703125 L 0.578125 -27.765625 L 0.390625 -18.28125 L -54.421875 -1.375 L -54.203125 -11.25 L -9.703125 -23.546875 L -53.578125 -37.59375 L -53.46875 -46.625 L -8.953125 -58.921875 L -52.90625 -72.984375 L -52.703125 -82.46875 Z M 1.328125 -63.125 "/></g></g></g><g fill="#000000" fill-opacity="1"><g transform="translate(74.957362, 162.542284)"><g><path d="M -27.046875 -39.5625 C -23.921875 -45.9375 -19.734375 -49.613281 -14.484375 -50.59375 C -9.242188 -51.582031 -3.28125 -50.125 3.40625 -46.21875 L -10.328125 -18.140625 C -7.128906 -17.367188 -4.203125 -17.601562 -1.546875 -18.84375 C 1.109375 -20.09375 3.15625 -22.1875 4.59375 -25.125 C 6.644531 -29.3125 6.910156 -33.507812 5.390625 -37.71875 L 12.015625 -39.75 C 14.335938 -33.875 13.925781 -27.722656 10.78125 -21.296875 C 7.976562 -15.578125 3.992188 -11.828125 -1.171875 -10.046875 C -6.335938 -8.273438 -11.710938 -8.753906 -17.296875 -11.484375 C -22.890625 -14.222656 -26.578125 -18.195312 -28.359375 -23.40625 C -30.148438 -28.613281 -29.710938 -34 -27.046875 -39.5625 Z M -16.28125 -20.875 L -5.890625 -42.109375 C -8.921875 -43.421875 -11.757812 -43.566406 -14.40625 -42.546875 C -17.050781 -41.523438 -19.113281 -39.503906 -20.59375 -36.484375 C -22.03125 -33.546875 -22.351562 -30.6875 -21.5625 -27.90625 C -20.78125 -25.125 -19.019531 -22.78125 -16.28125 -20.875 Z M -16.28125 -20.875 "/></g></g></g><g fill="#000000" fill-opacity="1"><g transform="translate(88.631666, 129.357475)"><g><path d="M -7.53125 -51.046875 C -3.351562 -55.148438 1.410156 -57.085938 6.765625 -56.859375 C 12.117188 -56.628906 16.992188 -54.273438 21.390625 -49.796875 C 25.753906 -45.359375 28.003906 -40.515625 28.140625 -35.265625 C 28.273438 -30.023438 26.234375 -25.335938 22.015625 -21.203125 C 17.285156 -16.546875 12.066406 -14.90625 6.359375 -16.28125 L 11.375 -11.171875 L 5 -4.90625 L -35.4375 -46.0625 L -29.0625 -52.328125 L -12.609375 -35.578125 C -13.878906 -41.304688 -12.1875 -46.460938 -7.53125 -51.046875 Z M 6.125 -21.546875 C 9.570312 -21.410156 12.609375 -22.632812 15.234375 -25.21875 C 17.859375 -27.800781 19.128906 -30.8125 19.046875 -34.25 C 18.972656 -37.695312 17.535156 -40.847656 14.734375 -43.703125 C 12.015625 -46.472656 8.929688 -47.925781 5.484375 -48.0625 C 2.035156 -48.207031 -1 -46.988281 -3.625 -44.40625 C -6.25 -41.820312 -7.519531 -38.804688 -7.4375 -35.359375 C -7.351562 -31.921875 -5.953125 -28.816406 -3.234375 -26.046875 C -0.429688 -23.191406 2.6875 -21.691406 6.125 -21.546875 Z M 6.125 -21.546875 "/></g></g></g><g fill="#000000" fill-opacity="1"><g transform="translate(121.480796, 98.587279)"><g/></g></g><g fill="#000000" fill-opacity="1"><g transform="translate(131.02453, 89.654633)"><g><path d="M -8 -54.3125 L 12.859375 -60.25 C 19.441406 -62.113281 24.984375 -62.003906 29.484375 -59.921875 C 33.984375 -57.835938 37.046875 -53.953125 38.671875 -48.265625 C 40.359375 -42.328125 39.859375 -37.207031 37.171875 -32.90625 C 34.484375 -28.613281 29.847656 -25.535156 23.265625 -23.671875 L 11.21875 -20.25 L 15.703125 -4.46875 L 6.890625 -1.953125 Z M 3.078125 -48.890625 L 8.96875 -28.1875 L 20.65625 -31.5 C 29.070312 -33.894531 32.28125 -38.601562 30.28125 -45.625 C 28.351562 -52.40625 23.179688 -54.597656 14.765625 -52.203125 Z M 3.078125 -48.890625 "/></g></g></g><g fill="#000000" fill-opacity="1"><g transform="translate(171.084002, 76.735496)"><g><path d="M 27.203125 -39.875 C 33.566406 -39.425781 38.601562 -37.132812 42.3125 -33 C 46.019531 -28.875 47.65625 -23.6875 47.21875 -17.4375 C 46.78125 -11.226562 44.4375 -6.320312 40.1875 -2.71875 C 35.9375 0.882812 30.628906 2.460938 24.265625 2.015625 C 17.859375 1.566406 12.796875 -0.734375 9.078125 -4.890625 C 5.367188 -9.054688 3.734375 -14.242188 4.171875 -20.453125 C 4.609375 -26.703125 6.953125 -31.613281 11.203125 -35.1875 C 15.460938 -38.757812 20.796875 -40.320312 27.203125 -39.875 Z M 26.65625 -32.203125 C 22.925781 -32.460938 19.800781 -31.429688 17.28125 -29.109375 C 14.757812 -26.796875 13.359375 -23.675781 13.078125 -19.75 C 12.796875 -15.769531 13.742188 -12.453125 15.921875 -9.796875 C 18.097656 -7.148438 21.046875 -5.695312 24.765625 -5.4375 C 28.492188 -5.175781 31.609375 -6.207031 34.109375 -8.53125 C 36.609375 -10.851562 38 -14.003906 38.28125 -17.984375 C 38.5625 -21.910156 37.609375 -25.195312 35.421875 -27.84375 C 33.242188 -30.488281 30.320312 -31.941406 26.65625 -32.203125 Z M 26.65625 -32.203125 "/></g></g></g><g fill="#000000" fill-opacity="1"><g transform="translate(211.184776, 79.627636)"><g><path d="M 28.53125 -33.75 L 25.765625 -25.984375 C 30.367188 -30.398438 35.820312 -31.484375 42.125 -29.234375 L 39.25 -21.171875 C 35.46875 -22.742188 32.019531 -22.953125 28.90625 -21.796875 C 25.800781 -20.648438 23.46875 -18.4375 21.90625 -15.15625 L 14.640625 5.21875 L 6.21875 2.21875 L 20.109375 -36.75 Z M 28.53125 -33.75 "/></g></g></g><g fill="#000000" fill-opacity="1"><g transform="translate(234.11198, 86.995153)"><g><path d="M 28.59375 6.625 L 26.875 13.625 C 22.914062 13.53125 19.503906 12.59375 16.640625 10.8125 C 13.773438 9.03125 11.953125 6.707031 11.171875 3.84375 C 10.390625 0.976562 11.054688 -2.148438 13.171875 -5.546875 L 24.5 -23.765625 L 19.546875 -26.859375 L 23.078125 -32.53125 L 28.03125 -29.4375 L 34.03125 -39.09375 L 41.5625 -34.421875 L 35.5625 -24.765625 L 45.921875 -18.3125 L 42.390625 -12.640625 L 32.03125 -19.09375 L 21.5625 -2.265625 C 20.457031 -0.503906 19.992188 0.914062 20.171875 2 C 20.347656 3.09375 21.078125 4.035156 22.359375 4.828125 C 23.765625 5.703125 25.84375 6.300781 28.59375 6.625 Z M 28.59375 6.625 "/></g></g></g><g fill="#000000" fill-opacity="1"><g transform="translate(255.917443, 100.121997)"><g><path d="M 51.109375 -20.921875 C 49.941406 -22.015625 48.65625 -22.585938 47.25 -22.640625 C 45.84375 -22.703125 44.5 -22.054688 43.21875 -20.703125 L 39.84375 -17.140625 L 47.6875 -9.703125 L 43.09375 -4.84375 L 35.25 -12.28125 L 12.5 11.796875 L 6.046875 5.71875 L 28.796875 -18.359375 L 24.84375 -22.109375 L 29.4375 -26.96875 L 33.390625 -23.21875 L 36.171875 -26.15625 C 39.304688 -29.476562 42.734375 -31.070312 46.453125 -30.9375 C 50.179688 -30.800781 53.457031 -29.398438 56.28125 -26.734375 C 58.914062 -24.234375 60.519531 -21.398438 61.09375 -18.234375 L 53.90625 -15.609375 C 53.507812 -17.753906 52.578125 -19.523438 51.109375 -20.921875 Z M 51.109375 -20.921875 "/></g></g></g><g fill="#000000" fill-opacity="1"><g transform="translate(271.396743, 111.408039)"><g><path d="M 48.265625 -1.28125 C 51.617188 4.132812 52.703125 9.554688 51.515625 14.984375 C 50.335938 20.410156 47.082031 24.773438 41.75 28.078125 C 36.46875 31.359375 31.117188 32.328125 25.703125 30.984375 C 20.296875 29.648438 15.914062 26.273438 12.5625 20.859375 C 9.175781 15.398438 8.082031 9.945312 9.28125 4.5 C 10.488281 -0.945312 13.734375 -5.3125 19.015625 -8.59375 C 24.347656 -11.894531 29.707031 -12.863281 35.09375 -11.5 C 40.488281 -10.144531 44.878906 -6.738281 48.265625 -1.28125 Z M 41.71875 2.78125 C 39.75 -0.394531 37.082031 -2.328125 33.71875 -3.015625 C 30.363281 -3.703125 27.015625 -3.007812 23.671875 -0.9375 C 20.285156 1.164062 18.148438 3.875 17.265625 7.1875 C 16.390625 10.5 16.9375 13.738281 18.90625 16.90625 C 20.875 20.082031 23.53125 22.003906 26.875 22.671875 C 30.226562 23.347656 33.597656 22.632812 36.984375 20.53125 C 40.328125 18.457031 42.4375 15.757812 43.3125 12.4375 C 44.1875 9.125 43.65625 5.90625 41.71875 2.78125 Z M 41.71875 2.78125 "/></g></g></g><g fill="#000000" fill-opacity="1"><g transform="translate(292.417036, 146.521857)"><g><path d="M 4.84375 15.1875 L 2.125 6.671875 L 57.09375 -10.875 L 59.8125 -2.359375 Z M 4.84375 15.1875 "/></g></g></g><g fill="#000000" fill-opacity="1"><g transform="translate(298.253607, 163.686991)"><g><path d="M 57.5625 -1.546875 C 58.707031 -0.734375 59.394531 0.414062 59.625 1.90625 C 59.863281 3.394531 59.5625 4.703125 58.71875 5.828125 C 57.875 6.953125 56.65625 7.640625 55.0625 7.890625 C 53.519531 8.128906 52.175781 7.835938 51.03125 7.015625 C 49.882812 6.203125 49.191406 5.050781 48.953125 3.5625 C 48.722656 2.070312 49.03125 0.765625 49.875 -0.359375 C 50.71875 -1.484375 51.910156 -2.164062 53.453125 -2.40625 C 55.046875 -2.65625 56.414062 -2.367188 57.5625 -1.546875 Z M 2.375 15.28125 L 1.015625 6.53125 L 41.90625 0.171875 L 43.265625 8.921875 Z M 2.375 15.28125 "/></g></g></g><g fill="#000000" fill-opacity="1"><g transform="translate(303.010119, 177.998269)"><g><path d="M 39.359375 27.953125 C 38.796875 34.296875 36.410156 39.28125 32.203125 42.90625 C 28.003906 46.539062 22.785156 48.078125 16.546875 47.515625 C 10.347656 46.960938 5.488281 44.523438 1.96875 40.203125 C -1.550781 35.890625 -3.03125 30.5625 -2.46875 24.21875 C -1.894531 17.8125 0.503906 12.789062 4.734375 9.15625 C 8.960938 5.519531 14.175781 3.976562 20.375 4.53125 C 26.613281 5.09375 31.476562 7.535156 34.96875 11.859375 C 38.46875 16.179688 39.929688 21.546875 39.359375 27.953125 Z M 31.6875 27.265625 C 32.019531 23.535156 31.050781 20.382812 28.78125 17.8125 C 26.507812 15.25 23.414062 13.796875 19.5 13.453125 C 15.519531 13.097656 12.1875 13.984375 9.5 16.109375 C 6.8125 18.234375 5.300781 21.15625 4.96875 24.875 C 4.632812 28.59375 5.601562 31.722656 7.875 34.265625 C 10.144531 36.816406 13.269531 38.269531 17.25 38.625 C 21.164062 38.96875 24.46875 38.070312 27.15625 35.9375 C 29.851562 33.8125 31.363281 30.921875 31.6875 27.265625 Z M 31.6875 27.265625 "/>
            </g>
        </g>
    </g>
</svg>